<?xml version="1.0" encoding="utf-8"?>
<!-- Generator: Adobe Illustrator 21.0.0, SVG Export Plug-In . SVG Version: 6.00 Build 0)  -->
<!DOCTYPE svg PUBLIC "-//W3C//DTD SVG 1.1//EN" "http://www.w3.org/Graphics/SVG/1.1/DTD/svg11.dtd">
<svg version="1.1" id="Laag_1" xmlns="http://www.w3.org/2000/svg" xmlns:xlink="http://www.w3.org/1999/xlink" x="0px" y="0px"
	 width="1275px" height="850px" viewBox="0 0 1275 850" style="enable-background:new 0 0 1275 850;" xml:space="preserve">
<style type="text/css">
	.st0{fill:none;}
	.st1{fill:#F7F5F0;}
	.st2{fill:#0F1941;}
	.st3{fill:#FFB511;}
</style>
<rect class="st0" width="1275" height="850"/>
<g>
	<path class="st1" d="M758.9,312.8c-7.2-7.2-18.9-7.2-26.1,0l-74.1,59.3l5.9,64.8c0.4,2.1,0.6,4.4,0.6,6.6c0,7.3-2.1,14.1-5.8,19.9
		c0,0,0.1-0.1,0.1-0.1l99.4-124.3C766.1,331.7,766.1,320,758.9,312.8z"/>
</g>
<path class="st2" d="M628.3,129.3L628.3,129.3L628.3,129.3c-15.3,0-27.7,12.4-27.7,27.7c0,15.3,12.4,27.7,27.7,27.7h0l0,0
	c132.7,0,240.2,107.5,240.2,240.2S760.9,665.2,628.3,665.2S388,557.7,388,425c0-15.3-12.4-27.7-27.7-27.7
	c-15.3,0-27.7,12.4-27.7,27.7c0,163.3,132.4,295.7,295.7,295.7S923.9,588.3,923.9,425S791.5,129.3,628.3,129.3z"/>
<ellipse transform="matrix(0.3827 -0.9239 0.9239 0.3827 -62.8939 550.8043)" class="st2" cx="380.7" cy="322.5" rx="27.7" ry="27.7"/>
<ellipse transform="matrix(0.7071 -0.7071 0.7071 0.7071 -38.0307 379.2686)" class="st2" cx="438.8" cy="235.5" rx="27.7" ry="27.7"/>
<ellipse transform="matrix(0.9239 -0.3827 0.3827 0.9239 -27.8926 214.6953)" class="st2" cx="525.7" cy="177.5" rx="27.7" ry="27.7"/>
<path class="st3" d="M664.6,436.9l-17.9-196.7c0-10.2-8.3-18.5-18.5-18.5s-18.5,8.3-18.5,18.5h0l-17.9,196.7
	c-0.4,2.1-0.6,4.3-0.6,6.6l0,0h0c0,20.4,16.5,37,37,37s37-16.5,37-37C665.2,441.2,665,439,664.6,436.9z"/>
<g>
</g>
<g>
</g>
<g>
</g>
<g>
</g>
<g>
</g>
<g>
</g>
<g>
</g>
<g>
</g>
<g>
</g>
<g>
</g>
<g>
</g>
<g>
</g>
<g>
</g>
<g>
</g>
<g>
</g>
</svg>
